# xmcd
#
# Track frame offsets:
#	150
#	13487
#	30462
#	45630
#	59888
#	86431
#	102215
#	115588
#	147404
#
# Disc length: 2135 seconds
#
# Revision: 0
# Processed by: cddbd v1.5.1PL2 Copyright (c) Steve Scherf et al.
# Submitted via: EasyCDDAExtractor 8.0.2.1
#
DISCID=78085509
DTITLE=Alice Cooper - Civic Center Providence RI 07-06-73
DYEAR=1973
DGENRE=Hard Rock
TTITLE0=Hello Hooray
TTITLE1=Billion Dollar Babies
TTITLE2=Raped and Freezin'
TTITLE3=No More Mr Nice Guy
TTITLE4=Unfinished Sweet 
TTITLE5=Sick Things
TTITLE6=Dead Babies
TTITLE7=School's Out
TTITLE8=A Hard Day's Night
EXTD=
EXTT0=
EXTT1=
EXTT2=
EXTT3=
EXTT4=
EXTT5=
EXTT6=
EXTT7=
EXTT8=
PLAYORDER=
